<svg width="40" height="40" viewBox="0 0 40 40" fill="none" xmlns="http://www.w3.org/2000/svg" class="sc-dcJsrY icCZkF"><rect width="40" height="40" rx="20" fill="#FF0013"></rect><path d="M27.23 26.3399C26.9657 26.3399 26.7095 26.4317 26.504 26.5998C26.2986 26.7679 26.1563 27.0023 26.1011 27.2638L21.7423 27.0504C21.7562 26.9672 21.7634 26.8829 21.7639 26.7985C21.7634 26.6464 21.7422 26.4952 21.7008 26.3491L23.2829 25.4252C23.4721 25.6616 23.7436 25.8157 24.0416 25.8557C24.3397 25.8957 24.6415 25.8185 24.885 25.6401C25.1284 25.4616 25.295 25.1955 25.3504 24.8965C25.4058 24.5975 25.3458 24.2884 25.1827 24.0329C25.0197 23.7773 24.7659 23.5947 24.4738 23.5228C24.1817 23.4508 23.8735 23.4949 23.6126 23.646C23.3516 23.7971 23.1579 24.0437 23.0712 24.335C22.9846 24.6263 23.0116 24.9401 23.1468 25.2118L21.6103 26.1072C21.4347 25.7304 21.1226 25.4364 20.7387 25.2859C20.3548 25.1354 19.9285 25.14 19.5478 25.2987C19.1672 25.4574 18.8614 25.7581 18.6937 26.1386C18.526 26.519 18.5093 26.9501 18.6469 27.3427L15.8014 28.0466C15.782 27.6525 15.6204 27.2792 15.3473 26.9975L15.8603 26.2777C16.1414 26.3752 16.4487 26.3601 16.7192 26.2355C16.9896 26.1108 17.2025 25.8861 17.3142 25.6074C17.4259 25.3288 17.4279 25.0175 17.3197 24.7374C17.2116 24.4574 17.0015 24.2299 16.7327 24.1017C16.4639 23.9735 16.1568 23.9544 15.8745 24.0483C15.5922 24.1422 15.3561 24.3419 15.2149 24.6065C15.0736 24.871 15.0379 25.1802 15.115 25.4706C15.1922 25.761 15.3763 26.0104 15.6296 26.1677L15.1572 26.8304C14.8237 26.5758 14.404 26.4655 13.9901 26.5238L13.4987 23.6899C13.7223 23.6401 13.9328 23.5425 14.116 23.4036C14.2992 23.2647 14.451 23.0878 14.5611 22.8847C14.6712 22.6815 14.7371 22.457 14.7543 22.226C14.7716 21.995 14.7398 21.7629 14.6612 21.5454C14.5825 21.3278 14.4588 21.1298 14.2983 20.9646C14.1378 20.7995 13.9442 20.6709 13.7306 20.5876C13.517 20.5044 13.2882 20.4683 13.0597 20.4818C12.8311 20.4954 12.6081 20.5582 12.4055 20.6662L11.1679 18.2262C11.4312 18.091 11.6529 17.8853 11.8087 17.6315L12.8347 17.9053C12.8265 17.9609 12.822 18.0171 12.8214 18.0733C12.8201 18.3669 12.9274 18.6503 13.1222 18.8679C13.3169 19.0855 13.5851 19.2215 13.8739 19.2491C14.1627 19.2768 14.4513 19.1942 14.683 19.0175C14.9147 18.8408 15.0727 18.5828 15.1259 18.2942C15.1791 18.0056 15.1237 17.7073 14.9706 17.458C14.8175 17.2086 14.5778 17.0262 14.2985 16.9466C14.0193 16.867 13.7207 16.896 13.4615 17.0279C13.2023 17.1598 13.0012 17.385 12.8978 17.6592L11.9282 17.4005C12.0598 17.0815 12.0863 16.7281 12.0038 16.3926L14.8551 15.0655C15.1112 15.391 15.481 15.6046 15.8882 15.6623C16.2954 15.7199 16.7089 15.6171 17.0435 15.3752C17.378 15.1333 17.6079 14.7707 17.6859 14.3622C17.7638 13.9537 17.6838 13.5305 17.4624 13.1799L19.2886 11.3757C19.5113 11.5211 19.7664 11.6077 20.0307 11.6277V12.424C19.737 12.4562 19.4666 12.6011 19.2753 12.8289C19.084 13.0567 18.9863 13.3501 19.0022 13.6486C19.0182 13.9471 19.1466 14.228 19.3611 14.4336C19.5755 14.6392 19.8597 14.7538 20.1552 14.7538C20.4506 14.7538 20.7348 14.6392 20.9493 14.4336C21.1638 14.228 21.2922 13.9471 21.3081 13.6486C21.3241 13.3501 21.2264 13.0567 21.035 12.8289C20.8437 12.6011 20.5734 12.4562 20.2797 12.424V11.6286C20.5081 11.6111 20.73 11.5441 20.9305 11.432L22.931 13.7443C22.7618 13.9686 22.6532 14.2336 22.6158 14.5132C22.5785 14.7929 22.6137 15.0775 22.718 15.3392C22.8223 15.6009 22.9921 15.8306 23.2107 16.0058C23.4293 16.181 23.6892 16.2956 23.9648 16.3383C24.2405 16.3811 24.5224 16.3505 24.7828 16.2497C25.0432 16.1488 25.2733 15.9811 25.4502 15.7631C25.6272 15.545 25.7451 15.2841 25.7923 15.006C25.8394 14.7279 25.8143 14.4422 25.7192 14.1769L26.3426 13.8216C26.5327 14.05 26.8021 14.1959 27.0953 14.2295C27.3886 14.263 27.6834 14.1817 27.9191 14.002C28.1548 13.8224 28.3136 13.5582 28.3627 13.2638C28.4119 12.9694 28.3477 12.6671 28.1833 12.4191C28.0189 12.1711 27.7669 11.9963 27.4791 11.9305C27.1912 11.8648 26.8894 11.9132 26.6357 12.0657C26.382 12.2182 26.1957 12.4632 26.1151 12.7505C26.0345 13.0377 26.0657 13.3453 26.2023 13.6099L25.6171 13.9459C25.4987 13.7274 25.3321 13.5395 25.1303 13.3966C24.9285 13.2538 24.697 13.1598 24.4535 13.122C24.2101 13.0843 23.9614 13.1037 23.7266 13.1789C23.4918 13.254 23.2772 13.3828 23.0995 13.5554L21.1413 11.2926C21.3356 11.1389 21.4924 10.942 21.5995 10.7172L23.3145 11.0062C23.3792 11.2968 23.5515 11.5514 23.7958 11.7177C24.0402 11.8839 24.3381 11.9493 24.6286 11.9004C24.9191 11.8514 25.18 11.6919 25.3579 11.4545C25.5359 11.2171 25.6173 10.9198 25.5855 10.6236C25.5537 10.3274 25.4111 10.0547 25.1869 9.86146C24.9628 9.66824 24.674 9.56913 24.38 9.58444C24.0859 9.59975 23.8088 9.72833 23.6054 9.94381C23.402 10.1593 23.2878 10.4453 23.2863 10.7433L21.6925 10.4753C21.7746 10.1965 21.7812 9.90051 21.7116 9.61824C21.642 9.33596 21.4987 9.07778 21.2968 8.87067C21.0949 8.66356 20.8417 8.51513 20.5637 8.44088C20.2857 8.36663 19.9931 8.36929 19.7164 8.44858C19.4398 8.52787 19.1893 8.68088 18.9911 8.89162C18.7928 9.10236 18.6542 9.3631 18.5896 9.6466C18.525 9.9301 18.5369 10.2259 18.6239 10.5032C18.7109 10.7805 18.87 11.029 19.0844 11.2229L17.3072 12.9766C17.0325 12.6572 16.6451 12.4594 16.2281 12.4257V11.1985C16.5218 11.1663 16.7921 11.0214 16.9834 10.7936C17.1747 10.5658 17.2725 10.2724 17.2565 9.97391C17.2406 9.67541 17.1121 9.39444 16.8977 9.18885C16.6832 8.98325 16.399 8.86866 16.1035 8.86866C15.8081 8.86866 15.5239 8.98325 15.3094 9.18885C15.095 9.39444 14.9665 9.67541 14.9506 9.97391C14.9346 10.2724 15.0324 10.5658 15.2237 10.7936C15.415 11.0214 15.6853 11.1663 15.979 11.1985V12.424C15.7088 12.4444 15.4481 12.5339 15.2214 12.6839C14.9946 12.834 14.8091 13.0398 14.6822 13.2821C14.5554 13.5244 14.4913 13.7952 14.496 14.0694C14.5007 14.3435 14.574 14.612 14.709 14.8497L11.9232 16.1465C11.8225 15.9041 11.6653 15.69 11.465 15.5225L12.5558 13.5436C12.6514 13.5692 12.7499 13.5824 12.8488 13.5831C13.1319 13.5836 13.4054 13.4792 13.6175 13.2894C13.8296 13.0997 13.9656 12.8378 13.9998 12.5534C14.0339 12.269 13.9638 11.9819 13.8028 11.7462C13.6418 11.5106 13.401 11.3429 13.1259 11.2749C12.8509 11.2068 12.5608 11.2432 12.3105 11.377C12.0601 11.5109 11.867 11.7329 11.7676 12.0012C11.6682 12.2694 11.6695 12.5652 11.7711 12.8326C11.8728 13.1 12.0678 13.3204 12.3192 13.452L11.2575 15.3771C11.0267 15.2394 10.7655 15.1622 10.4977 15.1528C10.2298 15.1434 9.96395 15.2019 9.72423 15.3231C9.48451 15.4443 9.27858 15.6243 9.12524 15.8467C8.97189 16.0691 8.876 16.3268 8.8463 16.5963C8.81661 16.8657 8.85406 17.1385 8.95524 17.3896C9.05642 17.6406 9.2181 17.8621 9.42556 18.0338C9.63301 18.2054 9.87963 18.3218 10.1429 18.3723C10.4062 18.4227 10.6778 18.4057 10.933 18.3228L12.1905 20.8022C11.8727 21.0397 11.6528 21.3876 11.5729 21.7791L10.6599 21.5069C10.6838 21.4134 10.6961 21.3172 10.6964 21.2205C10.6967 20.9342 10.593 20.6577 10.4051 20.4436C10.2172 20.2295 9.95813 20.0927 9.67709 20.0591C9.39606 20.0255 9.11263 20.0976 8.88062 20.2615C8.64862 20.4255 8.48419 20.6699 8.41856 20.9484C8.35294 21.227 8.39069 21.5202 8.52464 21.7724C8.6586 22.0246 8.87943 22.2183 9.1452 22.3167C9.41097 22.415 9.70318 22.4111 9.96634 22.3058C10.2295 22.2005 10.4453 22.0011 10.5727 21.7455L11.5406 22.0344C11.5406 22.0588 11.5406 22.0814 11.5406 22.1058C11.5406 22.3775 11.608 22.6448 11.7366 22.8833C11.8653 23.1218 12.051 23.3237 12.2769 23.4707L11.656 24.2955C11.4342 24.0984 11.1462 23.9947 10.8513 24.0057C10.5563 24.0167 10.2767 24.1416 10.0699 24.3548C9.86314 24.5679 9.74489 24.8531 9.73946 25.1517C9.73403 25.4504 9.84184 25.7398 10.0407 25.9605C10.2396 26.1812 10.5145 26.3164 10.8089 26.3384C11.1032 26.3604 11.3948 26.2675 11.6235 26.0787C11.8523 25.89 12.001 25.6198 12.039 25.3236C12.0769 25.0274 12.0014 24.7277 11.8278 24.4861L12.5035 23.595C12.7068 23.6853 12.9264 23.7319 13.1484 23.7319C13.1825 23.7319 13.2165 23.7319 13.2497 23.7268L13.7478 26.5784C13.5047 26.651 13.2821 26.7808 13.0981 26.9571C12.9141 27.1335 12.774 27.3514 12.6893 27.5931C12.6045 27.8347 12.5775 28.0933 12.6104 28.3475C12.6434 28.6018 12.7353 28.8445 12.8788 29.0559C13.0223 29.2673 13.2131 29.4413 13.4358 29.5637C13.6585 29.6861 13.9066 29.7535 14.16 29.7602C14.4133 29.767 14.6646 29.7129 14.8934 29.6025C15.1221 29.4921 15.3218 29.3285 15.476 29.125L17.8002 30.1724C17.7802 30.2592 17.7699 30.3479 17.7695 30.437C17.7685 30.7252 17.8725 31.0037 18.0617 31.2192C18.2508 31.4348 18.5118 31.5722 18.7948 31.6052C19.0778 31.6382 19.3629 31.5645 19.5955 31.3982C19.8282 31.232 19.9921 30.9847 20.056 30.7038C20.1198 30.4229 20.0791 30.1281 19.9416 29.8756C19.8041 29.6232 19.5795 29.4309 19.3107 29.3355C19.0419 29.2401 18.7478 29.2483 18.4846 29.3586C18.2214 29.4688 18.0076 29.6733 17.8841 29.9331L15.6155 28.9109C15.7149 28.7256 15.7775 28.5225 15.7997 28.3128L18.754 27.5813C18.8659 27.7884 19.0212 27.9683 19.2089 28.1084C19.3967 28.2485 19.6124 28.3454 19.841 28.3924C20.0697 28.4393 20.3057 28.4352 20.5326 28.3802C20.7595 28.3253 20.9717 28.2209 21.1546 28.0743L22.2603 29.0394C22.1361 29.3126 22.12 29.6235 22.2154 29.9083C22.3108 30.1931 22.5104 30.4301 22.7731 30.5705C23.0359 30.711 23.3418 30.7443 23.6281 30.6635C23.9143 30.5828 24.1592 30.3942 24.3122 30.1364C24.4652 29.8786 24.5149 29.5713 24.4509 29.2777C24.3869 28.9841 24.2142 28.7264 23.9682 28.5576C23.7223 28.3888 23.4218 28.3218 23.1285 28.3704C22.8352 28.4189 22.5715 28.5792 22.3914 28.8185L21.3397 27.9004C21.4969 27.7294 21.6155 27.526 21.6875 27.3041L26.0795 27.5183C26.0811 27.7488 26.1502 27.9737 26.278 28.1646C26.4057 28.3555 26.5865 28.5038 26.7975 28.5909C27.0084 28.678 27.2402 28.6999 27.4634 28.6539C27.6867 28.6079 27.8915 28.4961 28.0521 28.3325C28.2126 28.1688 28.3217 27.9608 28.3655 27.7346C28.4094 27.5083 28.386 27.274 28.2985 27.0612C28.2109 26.8483 28.063 26.6665 27.8735 26.5386C27.6839 26.4106 27.4611 26.3424 27.2333 26.3424L27.23 26.3399Z" fill="white"></path></svg>