<svg version="1.0" xmlns="http://www.w3.org/2000/svg" width="512.000000pt" height="512.000000pt" viewBox="0 0 512.000000 512.000000" preserveAspectRatio="xMidYMid meet" class="sc-dcJsrY icCZkF"><g transform="translate(0.000000,512.000000) scale(0.100000,-0.100000)" fill="#d71111" stroke="none"><path d="M1805 5010 c-98 -25 -290 -102 -415 -166 -355 -181 -667 -459 -883 -789 -76 -117 -206 -382 -252 -515 -52 -150 -100 -343 -127 -510 -20 -130 -23 -179 -23 -465 0 -328 5 -388 47 -605 92 -481 295 -886 613 -1228 214 -230 579 -463 907 -580 155 -55 221 -66 301 -52 216 39 354 239 319 463 -24 152 -103 244 -272 317 -460 199 -770 580 -900 1105 -110 448 -85 980 67 1380 48 126 113 251 185 359 72 106 252 290 352 360 66 47 221 130 353 188 116 52 193 157 214 291 34 219 -103 417 -315 456 -77 14 -87 14 -171 -9z"></path><path d="M3516 5009 c-78 -13 -168 -63 -225 -124 -82 -91 -116 -219 -92 -347 26 -133 99 -220 250 -297 243 -125 390 -272 534 -534 36 -65 82 -132 110 -160 88 -90 231 -135 386 -122 316 25 509 230 447 475 -39 153 -213 416 -399 603 -154 155 -319 271 -530 372 -246 118 -370 153 -481 134z"></path><path d="M4409 1847 c-153 -29 -264 -115 -331 -257 -22 -47 -53 -112 -69 -145 -52 -110 -131 -219 -233 -321 -113 -113 -179 -160 -326 -236 -151 -76 -211 -144 -245 -275 -51 -197 34 -387 213 -475 60 -30 75 -33 157 -33 80 0 101 5 190 39 204 78 387 178 555 304 93 69 263 234 340 327 135 165 274 397 336 560 102 271 -91 495 -446 519 -41 3 -105 0 -141 -7z"></path></g></svg>